<svg xmlns="http://www.w3.org/2000/svg" width="248.542" height="242.836" viewBox="0 0 248.542 242.836">
    <defs>
        <style>
            .prefix__cls-1{fill:#9258ed}.prefix__cls-2{fill:#6138a0}.prefix__cls-3{fill:#a984ef}.prefix__cls-4{fill:#fff}.prefix__cls-5{fill:#e9444b}
        </style>
    </defs>
    <g id="prefix__wiz1" transform="translate(-1753.347 -3040.272)">
        <circle id="prefix__Ellipse_12" cx="107.885" cy="107.885" r="107.885" class="prefix__cls-1" data-name="Ellipse 12" transform="translate(1786.119 3066.855)"/>
        <path id="prefix__Path_114" d="M1841.791 3106.325l-6.823 45.058a12.571 12.571 0 0 0 .722 6.795 12.7 12.7 0 0 0 21.637 3" class="prefix__cls-2" data-name="Path 114" transform="translate(27.309 20.275)"/>
        <path id="prefix__Path_115" d="M1962.27 3186.459a71.23 71.23 0 0 0-46.6-17.374h-13.486c-36.876 0-67.47 30.869-71.214 66.8 11.949 4.627 24.927 5.91 38.509 5.91 39.764-.004 74.421-23.095 92.791-55.336z" class="prefix__cls-2" data-name="Path 115" transform="translate(26.026 41.317)"/>
        <g id="prefix__Group_43" data-name="Group 43" transform="translate(1794.927 3216.052)">
            <path id="prefix__Path_116" d="M1880.609 3239.891a124.239 124.239 0 0 1-96.123-45.328l25.748-21.247a90.96 90.96 0 0 0 70.375 33.192z" class="prefix__cls-2" data-name="Path 116" transform="translate(-1784.487 -3173.316)"/>
        </g>
        <path id="prefix__Path_117" d="M1900.2 3168.744c-36.009 1.163-65.888 32.222-69.935 67.572a87.667 87.667 0 0 0 14.935 3.7c.988-32.216 22.9-63.491 55-71.272z" class="prefix__cls-3" data-name="Path 117" transform="translate(25.788 41.203)"/>
        <rect id="prefix__Rectangle_11" width="33.445" height="51.191" class="prefix__cls-1" data-name="Rectangle 11" rx="12.523" transform="translate(1925.073 3175.793)"/>
        <path id="prefix__Path_118" d="M1910.96 3207.438h-2.27a12.839 12.839 0 0 1-12.838-12.839v-13.347a46.058 46.058 0 0 1-8.746.844h-.671a46.536 46.536 0 0 1-46.4-46.4v-32.372c4.806 0 8.7 7.9 8.7 12.708v13.418c.3 33.624 20.88 46.4 46.4 46.4h.67a46.118 46.118 0 0 0 8.746-.843v13.346c0 7.091.654 19.086 7.744 19.086" class="prefix__cls-4" data-name="Path 118" transform="translate(29.064 19.269)"/>
        <path id="prefix__Path_119" d="M1922.916 3097.666a20.052 20.052 0 0 0-18.061 11.481h2.959v68.318a19.969 19.969 0 0 0 35.109-13.059v-46.736a20.065 20.065 0 0 0-20.007-20.004z" class="prefix__cls-2" data-name="Path 119" transform="translate(50.797 9.508)"/>
        <path id="prefix__Path_120" d="M1921.611 3123.121c0 7.893-7.2 14.292-16.079 14.292v-28.587c8.879.001 16.079 6.401 16.079 14.295z" class="prefix__cls-1" data-name="Path 120" transform="translate(51.024 21.114)"/>
        <path id="prefix__Path_121" d="M1914.016 3121.326a7.147 7.147 0 0 1-7.146 7.147v-14.293a7.147 7.147 0 0 1 7.146 7.146z" class="prefix__cls-4" data-name="Path 121" transform="translate(51.473 22.908)"/>
        <path id="prefix__Path_122" d="M1855.525 3123.551a4.808 4.808 0 0 0-.283-1.6 4.2 4.2 0 0 0-.8-1.367 3.785 3.785 0 0 0-1.238-.916 3.631 3.631 0 0 0-1.559-.338 3.524 3.524 0 0 0-1.544.338 3.82 3.82 0 0 0-1.222.916 4.2 4.2 0 0 0-.8 1.367 4.808 4.808 0 0 0-.283 1.6h-3.894a8.428 8.428 0 0 1 .59-3.1 7.985 7.985 0 0 1 1.641-2.573 7.63 7.63 0 0 1 2.459-1.72 7.752 7.752 0 0 1 6.11 0 7.657 7.657 0 0 1 2.46 1.72 8.012 8.012 0 0 1 1.641 2.573 8.426 8.426 0 0 1 .59 3.1z" class="prefix__cls-2" data-name="Path 122" transform="translate(30.359 23.363)"/>
        <path id="prefix__Path_123" d="M1884.525 3123.651a4.813 4.813 0 0 0-.283-1.6 4.2 4.2 0 0 0-.8-1.367 3.751 3.751 0 0 0-1.238-.917 3.638 3.638 0 0 0-1.559-.337 3.529 3.529 0 0 0-1.544.337 3.788 3.788 0 0 0-1.222.917 4.208 4.208 0 0 0-.8 1.367 4.819 4.819 0 0 0-.283 1.6h-3.893a8.411 8.411 0 0 1 .59-3.095 7.991 7.991 0 0 1 1.641-2.573 7.63 7.63 0 0 1 2.46-1.72 7.747 7.747 0 0 1 6.11 0 7.658 7.658 0 0 1 2.459 1.72 8.014 8.014 0 0 1 1.641 2.573 8.409 8.409 0 0 1 .59 3.095z" class="prefix__cls-2" data-name="Path 123" transform="translate(40.082 23.397)"/>
        <circle id="prefix__Ellipse_13" cx="29.469" cy="29.469" r="29.469" class="prefix__cls-2" data-name="Ellipse 13" transform="translate(1881.887 3055.708)"/>
        <circle id="prefix__Ellipse_14" cx="21.812" cy="21.812" r="21.812" class="prefix__cls-2" data-name="Ellipse 14" transform="translate(1853.187 3075.18)"/>
        <circle id="prefix__Ellipse_15" cx="28.399" cy="28.399" r="28.399" class="prefix__cls-2" data-name="Ellipse 15" transform="translate(1924.493 3074.082)"/>
        <path id="prefix__Path_124" d="M1854.628 3136.67c0 8.318 8.038 15.061 17.954 15.061s17.954-6.743 17.954-15.061z" class="prefix__cls-2" data-name="Path 124" transform="translate(33.957 30.449)"/>
        <path id="prefix__Path_125" d="M1801.856 3151.146c-.049-.082-.091-.167-.143-.249l-11.186-17.243a11.173 11.173 0 0 0-15.411-3.285 11.176 11.176 0 0 0-3.285 15.411l6.065 9.351a30.448 30.448 0 0 0-11.921 24.485c0 16.455 12.4 29.794 27.693 29.794s27.694-13.34 27.694-29.794c.002-13.39-8.206-24.716-19.506-28.47z" class="prefix__cls-1" data-name="Path 125" transform="translate(4.234 27.738)"/>
        <circle id="prefix__Ellipse_16" cx="48.054" cy="48.054" r="48.054" class="prefix__cls-1" data-name="Ellipse 16" transform="translate(1753.347 3062.847)"/>
        <circle id="prefix__Ellipse_17" cx="35.859" cy="35.859" r="35.859" class="prefix__cls-3" data-name="Ellipse 17" transform="translate(1765.134 3076.274)"/>
        <circle id="prefix__Ellipse_18" cx="23.703" cy="23.703" r="23.703" class="prefix__cls-4" data-name="Ellipse 18" transform="translate(1777.29 3088.429)"/>
        <path id="prefix__Path_126" d="M1780.034 3090.1a5.515 5.515 0 0 0 0 7.775l5.183 5.184 5.865 5.864a2.7 2.7 0 0 0 3.819 0l5.866-5.864 5.184-5.184a5.514 5.514 0 0 0 0-7.775 5.514 5.514 0 0 0-7.775 0l-5.184 5.183-5.182-5.183a5.514 5.514 0 0 0-7.776 0z" class="prefix__cls-5" data-name="Path 126" transform="translate(8.41 14.297)"/>
        <path id="prefix__Path_127" d="M1800.6 3150.766c-.049-.081-.091-.167-.143-.247l-11.184-17.245a11.176 11.176 0 0 0-15.412-3.285 11.058 11.058 0 0 0-4.276 5.25 11.176 11.176 0 0 1 15.405 3.289l11.186 17.244c.052.082.093.167.143.249 11.3 3.757 19.507 15.081 19.507 28.469a31.237 31.237 0 0 1-4.873 16.876 30.756 30.756 0 0 0 9.155-22.13c.003-13.389-8.208-24.714-19.508-28.47z" class="prefix__cls-3" data-name="Path 127" transform="translate(5.445 27.611)"/>
        <path id="prefix__Path_128" d="M1818.563 3063a2.247 2.247 0 0 0 3.167 0l2.111-2.111 2.389-2.391a1.1 1.1 0 0 0 0-1.554l-2.389-2.39-2.111-2.112a2.248 2.248 0 0 0-3.167 0 2.247 2.247 0 0 0 0 3.168l2.111 2.111-2.111 2.11a2.247 2.247 0 0 0 0 3.169z" class="prefix__cls-5" data-name="Path 128" transform="translate(21.646 1.991)"/>
        <path id="prefix__Path_129" d="M1834.866 3167.084a6.47 6.47 0 0 1-1.33 2.085 6.2 6.2 0 0 1-1.995 1.4 6.29 6.29 0 0 1-4.955 0 6.206 6.206 0 0 1-1.995-1.4 6.467 6.467 0 0 1-1.33-2.085 7.135 7.135 0 0 1 0-5.164 6.512 6.512 0 0 1 1.33-2.087 6.278 6.278 0 0 1 1.981-1.395 5.947 5.947 0 0 1 2.465-.508 6.035 6.035 0 0 1 2.477.508 6.231 6.231 0 0 1 1.995 1.395 6.724 6.724 0 0 1 1.839 4.668 6.849 6.849 0 0 1-.482 2.583zm-2.908-3.951a3.421 3.421 0 0 0-.651-1.108 3.1 3.1 0 0 0-.991-.744 2.888 2.888 0 0 0-1.252-.273 2.973 2.973 0 0 0-1.265.273 3.054 3.054 0 0 0-1 .744 3.424 3.424 0 0 0-.652 1.108 4.11 4.11 0 0 0 0 2.739 3.432 3.432 0 0 0 .652 1.108 3.04 3.04 0 0 0 1 .743 2.951 2.951 0 0 0 1.265.274 2.868 2.868 0 0 0 1.252-.274 3.084 3.084 0 0 0 .991-.743 3.428 3.428 0 0 0 .651-1.108 4.1 4.1 0 0 0 0-2.739z" class="prefix__cls-4" data-name="Path 129" transform="translate(23.279 37.577)"/>
        <path id="prefix__Path_130" d="M1809.579 3053.119a5.136 5.136 0 0 1-1.057 1.653 4.929 4.929 0 0 1-1.583 1.109 5.023 5.023 0 0 1-3.933 0 4.92 4.92 0 0 1-1.583-1.109 5.137 5.137 0 0 1-1.057-1.653 5.681 5.681 0 0 1 0-4.1 5.12 5.12 0 0 1 1.057-1.655 4.982 4.982 0 0 1 1.571-1.109 4.759 4.759 0 0 1 1.957-.4 4.843 4.843 0 0 1 1.968.4 4.972 4.972 0 0 1 1.582 1.109 5.255 5.255 0 0 1 1.066 1.655 5.341 5.341 0 0 1 .393 2.05 5.5 5.5 0 0 1-.381 2.05zm-2.309-3.138a2.739 2.739 0 0 0-.518-.88 2.455 2.455 0 0 0-.786-.587 2.238 2.238 0 0 0-.994-.219 2.312 2.312 0 0 0-1 .219 2.407 2.407 0 0 0-.8.587 2.8 2.8 0 0 0-.52.88 3.312 3.312 0 0 0 0 2.175 2.716 2.716 0 0 0 .52.878 2.367 2.367 0 0 0 .8.59 2.339 2.339 0 0 0 1 .218 2.264 2.264 0 0 0 .994-.218 2.414 2.414 0 0 0 .786-.59 2.655 2.655 0 0 0 .518-.878 3.259 3.259 0 0 0 0-2.175z" class="prefix__cls-1" data-name="Path 130" transform="translate(15.636 -5.581)"/>
        <path id="prefix__Path_131" d="M1813.321 3143.452a3.978 3.978 0 0 0 1.307-.231 3.444 3.444 0 0 0 1.117-.657 3.081 3.081 0 0 0 .749-1.012 2.97 2.97 0 0 0 .276-1.274 2.887 2.887 0 0 0-.276-1.262 3.13 3.13 0 0 0-.749-1 3.443 3.443 0 0 0-1.117-.657 3.934 3.934 0 0 0-1.307-.23v-3.183a6.867 6.867 0 0 1 2.53.483 6.546 6.546 0 0 1 2.1 1.339 6.25 6.25 0 0 1 1.406 2.011 6.339 6.339 0 0 1 0 4.994 6.246 6.246 0 0 1-1.406 2.01 6.54 6.54 0 0 1-2.1 1.34 6.892 6.892 0 0 1-2.53.484z" class="prefix__cls-2" data-name="Path 131" transform="translate(20.108 29.536)"/>
        <path id="prefix__Path_132" d="M1857.606 3130.134a4.864 4.864 0 0 0 4.865 4.864v-9.729a4.864 4.864 0 0 0-4.865 4.865z" class="prefix__cls-4" data-name="Path 132" transform="translate(34.956 26.626)"/>
    </g>
</svg>
